# xmcd
#
# Track frame offsets:
#	150
#	19965
#	41864
#	67981
#	93785
#	117385
#	140562
#	157854
#	180238
#	203530
#	229107
#	247581
#	269713
#	283145
#	308249
#
# Disc length: 4562 seconds
#
# Revision: 1
# Processed by: cddbd v1.4PL0 Copyright (c) Steve Scherf et al.
# Submitted via: EasyCDDAExtractor 6.0.0.1
#
DISCID=c911d00f
DTITLE=Babyface - Lovesongs
DYEAR=1900
DGENRE=R&B
TTITLE0=Lady Lady
TTITLE1=Never Keeping Secrets
TTITLE2=Whip Appeal
TTITLE3=Reason For Breathing
TTITLE4=How Come How Long
TTITLE5=Soon As I Get Home
TTITLE6=When Can I See You
TTITLE7=Everytime I Close My Eyes
TTITLE8=Where Will You Go
TTITLE9=When Your Body Gets Weak
TTITLE10=I Said I Love You
TTITLE11=For The Cool In You
TTITLE12=A Bit Old-Fashioned
TTITLE13=When Men Grow Old
TTITLE14=Change The World
EXTD=
EXTT0=
EXTT1=
EXTT2=
EXTT3=
EXTT4=
EXTT5=
EXTT6=
EXTT7=
EXTT8=
EXTT9=
EXTT10=
EXTT11=
EXTT12=
EXTT13=
EXTT14=
PLAYORDER=
